<?xml version="1.0" encoding="utf-8"?>
<!-- Generator: Adobe Illustrator 25.2.1, SVG Export Plug-In . SVG Version: 6.00 Build 0)  -->
<svg version="1.1" id="Warstwa_1" xmlns="http://www.w3.org/2000/svg" xmlns:xlink="http://www.w3.org/1999/xlink" x="0px" y="0px"
	 viewBox="0 0 453.5 453.5" style="enable-background:new 0 0 453.5 453.5;" xml:space="preserve">
<style type="text/css">
	.st0{fill:#3164AE;}
	.st1{fill:#25356E;}
	.st2{fill:#E83761;}
	.st3{fill:#0E8657;}
	.st4{fill:#E61D4C;}
	.st5{fill:#E72853;}
	.st6{fill:#5E8AC7;}
	.st7{fill:#E83762;}
	.st8{fill:#292457;}
	.st9{fill:#C9CDE9;}
	.st10{fill:#19A672;}
	.st11{fill:#1AA670;}
	.st12{fill:#F5AAAC;}
	.st13{fill:#E83962;}
	.st14{fill:#2F65AE;}
	.st15{fill:#292459;}
	.st16{fill:#F29394;}
	.st17{fill:#D8D9DA;}
	.st18{fill:#3166AF;}
	.st19{fill:#232221;}
	.st20{fill:#F4A7AB;}
	.st21{fill:#77A8DB;}
	.st22{fill:#DC0F45;}
	.st23{fill:#A21922;}
	.st24{fill:#4273B8;}
	.st25{fill:#3265AE;}
</style>
<g>
	<path class="st0" d="M136.3,243.7c-4.5-1.7-9.2-2.5-14-2.9c-5.5-0.4-11-0.6-16.5-1c-5.2-0.4-10.3-1.1-15.3-2.9
		c-7.7-2.7-13.5-7.6-17-15.1c-2.1-4.6-3.5-9.4-4.8-14.3c-0.9-3.3-1.7-6.7-2.8-10c-2.7-8.7-7.5-16.2-14-22.5c-0.5-0.5-1-1-1.5-1.5
		c0.3-0.4,0.4-0.9,0.8-1.2c4.1-2.9,7.9-6.2,11.5-9.7c1.2-1.1,2.5-2.3,3.7-3.4c2.6-2.3,5.2-4.5,7.7-6.9c5.3-5.1,10.4-10.4,15.3-15.9
		c1.7-1.9,3.4-3.9,5.2-5.8c2.8-3.2,5.6-6.6,8.5-9.7c2.7-2.9,5.6-5.6,8.3-8.4c2.9-3,6.1-5.8,9.4-8.4c6-4.9,12.5-9.1,19.7-12
		c4.8-2,9.7-3.5,14.9-4.2c2.4-0.3,4.8-0.7,7.2-0.9c1.1-0.1,2.2-0.1,3.1,0.6c-6.1,2.5-11.9,5.8-17.4,9.4c-9.1,5.9-17.4,12.6-24.2,21
		c-5.3,6.6-9.1,14-10,22.5c-0.3,2.9,0.2,5.5,2.1,7.7c1.9,2.3,4.2,4.2,6.8,5.8c4.8,3,10,5.2,15.2,7.4c2,0.8,4,1.6,6.1,2.5
		c-0.3,0.6-0.6,1.2-0.9,1.7c-3.6,6.6-7.9,12.7-12.6,18.5c-5,6.3-9.9,12.6-14,19.5c-3.1,5.2-5.6,10.6-7.2,16.5c-0.2,0.7-0.5,1.3,0,2
		c0.3,1.4,1.5,2.1,2.6,2.7c1.8,0.9,3.7,1.4,5.6,1.4c2.7-0.1,5.4-0.3,8.1-0.4c1.8-0.1,3.7-0.1,5.5,0c2.9,0.2,5.7,1,8.5,1.9
		C139,233,137.7,238.4,136.3,243.7z"/>
	<path class="st1" d="M136.3,243.7c1.3-5.4,2.7-10.8,4-16.1c0.7-2.7,1.5-5.3,2.2-8c0.6,0.3,1.2,0.5,1.7,0.9c2.1,1.3,4.1,2.7,6.2,3.9
		c4.1,2.3,8.4,2.1,12.8,1.1c1.1-0.3,1.6-1,1.7-2.1c0-0.5,0-1,0-1.5c-0.2-2-0.4-4.1-0.5-6.1c-0.2-3.2-0.3-6.4-0.5-9.6
		c-0.3-4.8-0.6-9.6-0.8-14.4c-0.2-3.5-0.4-6.9-0.6-10.4c-0.1-2.5-0.2-5.1-0.3-7.6c3.7,0.6,7.3,1.2,11,1.7c3,0.4,6,0.8,9,0.9
		c4.8,0.2,9.5,0.1,14.2-0.5c4.1-0.6,8.2-1.3,12-3.1c1-0.4,2-0.8,3-1.3c0.1,2.1,0.3,4.2,0.3,6.3c0.1,2.5,0.1,4.9,0.1,7.4
		c-0.1,1.8-0.3,3.6-0.4,5.3c-0.5,6.5-1,13-1.6,19.5c-0.4,4.1-0.8,8.2-1.2,12.3c-0.2,2.1-0.4,4.3-0.7,6.4c-0.1,1.3-0.3,2.7-0.4,4
		c-0.2,2.4-0.5,4.7-0.7,7.1c-0.3,2.5-0.6,4.9-0.9,7.4c-0.3,2.3-0.6,4.6-0.9,6.9c-0.2,1.7-0.3,3.3-0.4,5c-0.3,2.3-0.7,4.6-1,6.9
		c-1,7.3-1.9,14.7-2.9,22c-0.6,4.9-1.3,9.9-2,14.8c0,0.3,0.1,0.6,0.1,0.9c-0.7,0.2-1.4,0.4-2.2,0.7c-3.9,1.3-7.8,2.5-11.7,3.8
		c-0.6,0.2-1.2,0.6-1.7-0.2c0.1-11.5,0.1-23,0.2-34.5c0-0.2,0-0.4,0-0.6c0-1.1,0-2.2,0-3.3c0-2.7,0.1-5.4,0.1-8.2
		c0-0.3,0.1-0.6,0.1-1c0-9.1,0-18.3,0-27.4c0.1-10.2,0.2-20.4,0.2-30.7c0-0.1-0.1-0.1-0.3-0.3c-0.3,0.5-0.6,0.9-0.8,1.4
		c-5,9.2-9.4,18.8-13.7,28.3c-0.2,0.4-0.3,0.8-0.4,1.2c-0.1,0.2-0.3,0.4-0.4,0.7c-2.5,5.6-5,11.1-7.4,16.7c-1.1,2.6-2.2,5.1-3.3,7.7
		c-2.7,6.1-5.4,12.2-8.2,18.2c-4.1,9.2-8.5,18.3-13.2,27.2c-0.5,0.9-1,1.5-2.1,1.5c-1.3-0.1-2.7-0.1-4-0.4c-2-0.4-4.1-0.9-6.1-1.5
		c-0.6-0.2-1.2-0.7-1.7-1.1c0.9-3.7,1.9-7.4,2.7-11.2c3-13,6-26,9-39C135.1,249.1,135.7,246.4,136.3,243.7z"/>
	<path class="st2" d="M383.3,217.8c-1,4.6-2.2,9.1-3.8,13.6c-3.8,10.2-11.1,16.4-21.6,19c-4.5,1.1-9.2,1.6-13.8,1.9
		c-4.5,0.3-9,0.4-13.5,0.7c-4.2,0.3-8.4,1-12.4,2.3c-3.8,1.2-7.2,3-10.4,5.3c-1.9,1.4-3.8,2.7-5.7,4c-0.7-3.9-1.4-7.9-2.1-11.8
		c-3.4-17.7-8.2-35-14.9-51.7c-1.4-3.6-3.1-7-4.7-10.5c0.6-0.5,1.2-1,1.9-1.5c-0.5-1.3-1-2.4-1.4-3.7c-1.5-4-2.9-7.9-4.4-11.9
		c3.4,0.2,6.7,0,9.6-2.2c0,0.4,0,0.9,0.1,1.3c0.1,1.1,0.7,1.9,1.6,2.3c1.9,0.8,3.8,1.6,5.7,2.4c1.4,0.6,2.8,1,4.2,1.6
		c1.4,0.6,2.6,1.5,4,2.1c6.2,2.9,12.3,5.7,18.5,8.5c1.1,0.5,2.3,1,3.4,1.5s2.3,1,3.4,1.5c1,0.5,1.9,1.1,2.8,1.6
		c2.8,1.3,5.6,2.6,8.4,3.9c2.1,0.9,4.2,1.8,6.2,2.7c2.9,1.3,5.7,2.6,8.6,3.9c3.5,1.6,6.9,3.2,10.4,4.8c2.8,1.2,5.6,2.3,8.3,3.6
		c2.9,1.4,5.7,2.9,8.5,4.3c0.6,0.3,1.2,0.4,1.7-0.3c0.2-0.4,0.6-0.6,1-0.9C383,216.7,383.2,217.2,383.3,217.8z"/>
	<path class="st3" d="M280.4,190.4c1.6,3.5,3.3,7,4.7,10.5c6.8,16.7,11.6,34,14.9,51.7c0.7,3.9,1.4,7.9,2.1,11.8
		c0.3,2.8,0.7,5.7,0.9,8.5c0.4,5.1,0.7,10.1,0.8,15.2c0.1,4.7-0.2,9.5-0.3,14.3c-0.3,0.1-0.7,0.2-1,0.3c-2.1,0.1-4.2,0.1-6.2,0.2
		c-0.7,0-1.4,0-2.2,0c-0.5-1.2-1-2.4-1.5-3.6c-3.3-8.2-6.5-16.5-9.8-24.7c-0.2-0.6-0.5-1.2-0.8-1.8c-0.1-0.3-0.2-0.6-0.3-0.9
		c-5-13-10-26.1-15.1-39.1c-4.1-10.4-8.4-20.7-12.6-31c-0.2-0.4-0.4-0.7-0.6-1.1c-0.2,1.3-0.1,2.5,0,3.7c0.7,11.2,1.3,22.4,2,33.6
		c0.5,8.9,1.1,17.7,1.7,26.6c0.2,2.4,0.4,4.7,0.6,7.1c0.2,3.3,0.4,6.6,0.7,9.9c0.5,5.6,1,11.2,1.5,16.8c0.1,0.6,0.1,1.3,0.2,2
		c-0.3,0.2-0.7,0.5-1,0.7c-4,1-7.8,0.4-11.7-0.6c-0.5-1-1.2-2-1.5-3c-3.3-9.1-5.5-18.6-7.4-28.1c-1.4-7-2.8-14-4.1-21
		c-0.9-5-1.6-10-2.4-15.1c-1-6.4-1.9-12.8-2.8-19.3c-0.9-7.3-1.4-14.5-1.4-21.9c0-0.3,0.1-0.6,0.1-1c0.5,0.1,1,0.1,1.5,0.2
		c1.9,0.6,3.7,1.2,5.5,1.8c4.5,1.4,9.2,2.2,13.9,2.5c4.6,0.2,9.3,0.2,13.9-0.5c4.7-0.7,9.2-1.8,13.6-3.5
		C277.8,191.3,279.1,190.9,280.4,190.4z"/>
	<path class="st4" d="M402.8,188.4c-3,2.9-6,5.7-9.1,8.6c-0.6-0.5-1.1-1.2-1.8-1.6c-3.2-1.6-6.4-3.1-9.7-4.5
		c-2.6-1.2-5.2-2.3-7.8-3.5c-2.7-1.2-5.4-2.5-8.1-3.7c-1.9-0.9-3.8-1.9-5.7-2.8c-1-0.5-2-0.8-3-1.2c-1.7-0.8-3.3-1.7-4.9-2.4
		c-6.2-2.9-12.5-5.7-18.7-8.6c-2.2-1-4.4-2-6.6-3c-2.1-1-4.3-1.8-6.4-2.8c-0.8-0.4-1.5-0.9-2.3-1.3c-4.1-1.8-8.2-3.5-12.3-5.4
		c-4.1-1.8-8.1-3.8-12.2-5.6c-0.7-0.3-0.9-0.8-0.8-1.6c0.1-0.6,0.1-1.2,0.2-1.7c0-0.5,0-1,0-1.5c0.2-7.1-0.1-14.1-1.2-21.1
		c-0.3-2-0.6-3.9-0.9-5.9c2.5,1.1,5,2.3,7.5,3.4c4.4,2,8.8,4.1,13.2,6.1c6,2.8,11.9,5.5,17.9,8.3c2.2,1,4.3,1.9,6.5,2.9
		c3.8,1.7,7.6,3.3,11.4,5.1c3.5,1.6,6.9,3.3,10.4,5c0.9,0.4,1.8,0.7,2.7,0.1c3.2,3.5,6.3,6.9,9.5,10.3c4.1,4.4,8.6,8.3,13.2,12.2
		c3.1,2.7,6.2,5.6,9.3,8.3c2.2,1.9,4.6,3.7,6.9,5.6C401,186.9,401.9,187.7,402.8,188.4z"/>
	<path class="st5" d="M293.8,147.4c-0.1,0.6-0.1,1.2-0.2,1.7c-0.1,0.7,0,1.2,0.8,1.6c4.1,1.9,8.1,3.8,12.2,5.6s8.2,3.6,12.3,5.4
		c0.8,0.3,1.5,0.9,2.3,1.3c2.1,1,4.3,1.9,6.4,2.8c2.2,1,4.4,2,6.6,3c6.2,2.9,12.5,5.7,18.7,8.6c1.7,0.8,3.3,1.7,4.9,2.4
		c1,0.5,2,0.8,3,1.2c1.9,0.9,3.8,1.9,5.7,2.8c2.7,1.3,5.4,2.5,8.1,3.7c2.6,1.2,5.2,2.3,7.8,3.5c3.2,1.5,6.5,3,9.7,4.5
		c0.7,0.3,1.2,1,1.8,1.6c-4.4,4.8-7.6,10.2-9.1,16.6c-0.3,1.4-0.9,2.8-1.3,4.2c-0.2-0.5-0.3-1.1-0.5-1.8c-0.3,0.3-0.7,0.6-1,0.9
		c-0.5,0.7-1.1,0.6-1.7,0.3c-2.8-1.4-5.6-3-8.5-4.3c-2.7-1.3-5.6-2.4-8.3-3.6c-3.5-1.6-6.9-3.2-10.4-4.8c-2.8-1.3-5.7-2.6-8.6-3.9
		c-2.1-0.9-4.2-1.8-6.2-2.7c-2.8-1.3-5.6-2.6-8.4-3.9c-1-0.5-1.9-1.1-2.8-1.6c-1.1-0.5-2.2-1-3.4-1.5c-1.1-0.5-2.3-1-3.4-1.5
		c-6.2-2.8-12.4-5.7-18.5-8.5c-1.4-0.6-2.6-1.5-4-2.1s-2.8-1.1-4.2-1.6c-1.9-0.8-3.8-1.6-5.7-2.4c-0.9-0.4-1.5-1.2-1.6-2.3
		c0-0.4,0-0.9-0.1-1.3c1.3-2,2.3-4.1,3-6.4c1.7-5.6,2.4-11.5,2.9-17.3C292.5,147.4,293.2,147.4,293.8,147.4z"/>
	<path class="st6" d="M166,87.6c-0.9-0.7-2-0.7-3.1-0.6c-2.4,0.3-4.8,0.6-7.2,0.9c-5.2,0.7-10.1,2.2-14.9,4.2
		c-7.2,2.9-13.7,7.1-19.7,12c-3.3,2.7-6.5,5.4-9.4,8.4c-2.8,2.8-5.6,5.5-8.3,8.4c-2.9,3.2-5.7,6.5-8.5,9.7c-1.7,1.9-3.4,3.9-5.2,5.8
		c-4.9,5.5-9.9,10.8-15.3,15.9c-2.5,2.4-5.2,4.6-7.7,6.9c-1.3,1.1-2.5,2.2-3.7,3.4c-3.7,3.5-7.4,6.7-11.5,9.7
		c-0.4,0.3-0.5,0.8-0.8,1.2c-0.6-0.4-1,0.1-1.5,0.3c-1.4,0.8-2.7,1.6-4.1,2.4c-0.7,0.4-1.4,0.5-2.2,0.2c-2.5-1-5-1.8-7.4-3
		c-4.3-2.1-8.2-4.9-11.4-8.5c-1.3-1.4-2.5-2.9-3.3-4.9c1.4-0.5,2.7-1,4-1.5c13.7-4.9,26.5-11.5,38.8-19.3
		c14.1-8.9,27.3-19,39.8-30.1c5.2-4.7,10.5-9.2,16.5-13c8.5-5.4,17.8-8.7,27.6-10.4c7.4-1.3,14.9-1.8,22.5-1.5
		c1.7,0.1,3.3,0.4,5,0.6c-0.5,0.2-0.9,0.5-1.4,0.6c-1.6,0.4-3.1,0.8-4.7,1.1c-0.3,0.1-0.5,0.2-0.8,0.3
		C167.3,87.3,166.7,87.4,166,87.6z"/>
	<path class="st6" d="M200.3,85.6c0.2,0.1,0.4,0.3,0.6,0.4c0.3,2,0.6,4,1,6c1.4,7.1,2.3,14.3,3.1,21.5c-0.4,0.3-0.8,0.6-1.2,0.8
		c-1.9,1.3-2.1,4.9,0.3,6.5c0.6,0.4,1.3,0.6,1.9,0.8c0.5,4.4,1,8.9,1.6,13.3c0.5,4.1,1.1,8.2,1.6,12.3c0.2,1.5,0.4,3.1,0.6,4.6
		c-1.7,0.4-3.4,0.9-4.8,1.3c-0.6,1.5-1,2.6-1.5,3.9c1,0.3,2,0.6,3.2,1c-0.2,0.6-0.4,1.2-0.6,1.9c1,0.1,1.8,0.2,2.9,0.3
		c-0.3,3-0.2,5.9,2.5,7.9c0,0.4,0,0.7,0,1.1c-0.3-0.4-0.6-0.7-1.2-0.5c-3.3,0.8-6.6,1.5-9.9,2.2c-4.9,1.1-9.8,1.2-14.7,1.5
		c-1.9,0.1-3.9-0.1-5.8-0.3c-2.9-0.2-5.9-0.4-8.8-0.7c-1.8-0.2-3.6-0.6-5.4-0.9c0.1-1.1,0.2-2.2,0.3-3.3c1.1-2,1-4.2,1.5-6.4
		c0.9-0.1,1.8-0.1,2.8-0.2c-0.4-0.8-0.7-1.3-1.1-2c1.3-0.1,2.4-0.1,3.6-0.2c-0.2-0.9-0.4-1.6-0.4-2.3c-0.2-1.9-1.4-2.7-3.2-2.8
		c0.1-0.6,0-1.2,0.2-1.7c1.5-5.2,3-10.3,4.5-15.5c0.6-2.1,1.2-4.2,1.7-6.3c0.1-0.1,0.3-0.1,0.4-0.2c2.1-0.5,3.6-2,4.8-3.7
		c0.7-1,0.5-1.7-0.5-2.4c-0.9,0.9-1.6,1.9-2,3.1c-0.3,0.8-0.7,1.3-1.4,1.7c-0.5-0.5-0.3-1.1-0.1-1.7c1.1-4.2,2.3-8.4,3.2-12.7
		c0.5-2.4,0.7-4.9,0.8-7.4c0.1-1.9-0.1-3.9-0.3-5.8s-0.4-3.7-0.7-5.6c-0.3-1.5-0.5-3.1-1.6-4.3c-0.1-0.5-0.2-0.9-0.2-1.4
		c-0.2-1.6-0.3-3.2-0.5-4.8c0.3-0.1,0.6-0.2,1-0.3c0,0.8,0.1,1.5,0.1,2.3c0,2.3,0.3,2.7,2.5,3.6c0.2,0.1,0.4,0.2,0.6,0.2
		c4,0.9,7.9,1.4,12,0.6C197.1,90.4,199.3,88.8,200.3,85.6z M187.3,98.1c0.4,0.6,0.6,1.1,1,1.6c1,1.4,1.4,3,1.1,4.8
		c-0.2,1-0.2,1.9-0.4,2.9c-0.9,6.9-1.8,13.7-2.8,20.6c-0.9,5.8-1.8,11.7-2.8,17.5c-0.4,2.6-1.1,5.1-1.6,7.6
		c-0.1,0.6-0.4,1.1,0.3,1.6c2.7,1.9,5.4,3.8,8.1,5.8c2.4-1.8,4.7-3.6,7.1-5.2c1-0.7,1.3-1.5,1.3-2.7c0-11.5-0.4-23-1.7-34.4
		c-0.5-4.5-1.1-9-2.5-13.4c-0.6-2-0.7-3.9,0.2-5.8c0.1-0.3,0.2-0.6,0.3-0.9c-1.4-1.3-2.7-2.5-4.1-3.9
		C189.6,95.6,188.5,96.9,187.3,98.1z"/>
	<path class="st7" d="M402.8,188.4c-0.9-0.8-1.8-1.5-2.7-2.3c-2.3-1.9-4.7-3.6-6.9-5.6c-3.1-2.7-6.2-5.6-9.3-8.3
		c-4.5-3.9-9-7.9-13.2-12.2c-3.2-3.4-6.4-6.9-9.5-10.3c-1.4-1.6-2.9-3.2-4.3-4.8c-2.5-2.8-5-5.6-7.5-8.5c-0.6-0.6-1.2-1.2-1.8-1.9
		c-3.6-3.5-7-7.2-10.7-10.6c-2.7-2.5-5.8-4.7-8.8-6.9c-5.5-4-11.3-7.4-17.8-9.5c-3.6-1.2-7.4-2.1-11-3.1c1-0.9,2.1-1.7,3.1-2.6
		c3.6,0.7,7.3,1.2,10.8,2.1c11,2.7,20.8,8,29.4,15.3c5.7,4.8,11.3,9.8,17.1,14.5c13.7,11.1,28.1,21,43.7,29.2
		c8.4,4.4,17,8.2,25.9,11.1c0.3,0.1,0.7,0.3,1.1,0.4c-0.3,1.3-1.1,2.2-1.8,3.1c-2.3,3-5.2,5.4-8.3,7.4c-3.6,2.3-7.4,4.1-11.4,5.4
		c-0.7,0.2-1.3,0.2-2-0.1c-0.9-0.5-1.9-1.1-2.9-1.5C403.7,188.6,403.3,188.6,402.8,188.4z"/>
	<path class="st8" d="M302.4,102c-1,0.9-2.1,1.7-3.1,2.6c-2.8,1.4-5.5,2.7-8.5,3.5c-2.1,0.6-4.3,1.1-6.4,1.7
		c-1.1-0.3-2.3-0.6-3.4-0.9c-0.4-0.1-0.8-0.2-1.2-0.4c-0.2-0.2-0.5-0.4-0.8-0.6c-3.5-2.2-5.6-5.5-6.2-9.6c-0.3-1.7-0.3-3.4-0.4-5.1
		c-0.1-0.9,0.2-1.5,0.8-2.1c0.5-0.5,1-1.2,1.2-1.8c0.4-1.2-0.2-1.9-1.4-1.8c-0.2,0-0.4,0.1-0.6,0.1c-0.1-0.2-0.1-0.3-0.2-0.5
		c-0.4-4.1,0-8.1,1.8-11.8c-0.2-0.1-0.3-0.2-0.4-0.2c-0.5,0-1.1,0-1.6,0c-4,0.4-8,0.1-11.9-0.7c-3.1-0.6-6.1-0.1-9,1.3
		c-1.4,0.7-2.1,1.6-1.8,3.2c0.9,0.2,2-0.3,2.9,0.8c-1.2,0-2.1,0-3.2,0c-0.2,1.5-0.4,2.8-0.6,4.2c-0.1,0.4-0.1,0.8-0.2,1.2
		c-0.2,1.1-0.5,2.2-0.4,3.3c0.1,3.2,1,6.2,2.7,9c0.2,0.3,0.3,0.8,0.5,1.2l0,0c-2.9-2.8-4.7-6.3-5.8-10.1c-2.5-9,0.9-17.5,8.9-22.4
		c5-3,10.5-4.2,16.3-4c6.5,0.3,12.4,2.2,18.1,5.2c1,0.5,1.9,1,2.9,1.5c4.4,2.7,9.2,3.3,14.2,2.4c1.9-0.4,4-0.3,6-0.2
		c2.4,0.2,4.3,1.3,5.6,3.4c1.1,1.8,1.2,3.6-0.1,5.3c-0.8,1-1.7,1.9-2.7,2.7c-1.2,0.9-2.5,1.7-3.8,2.5c-2.5,1.6-3.7,3.8-4,6.7
		c-0.1,1.7-0.4,3.3-0.8,5C305.2,98.5,303.8,100.3,302.4,102z"/>
	<path class="st9" d="M209.9,152.1c-0.2-1.5-0.4-3.1-0.6-4.6c-0.5-4.1-1.1-8.2-1.6-12.3c-0.6-4.4-1.1-8.9-1.6-13.3
		c0.3,0,0.5-0.1,0.8-0.1c2.1-0.2,3.5-1.6,3.9-3.6c0.3-1.9-0.7-3.6-2.7-4.4c0.1-0.4,0.1-0.7,0.2-1.1c0.4-2.5,0.9-4.9,1.1-7.4
		c0.4-5.9-0.8-11.5-3-16.9c0.4,0.1,0.9,0.1,1.2,0.3c2.5,1.7,5,3.4,7.3,5.3c2,1.6,3.9,3.4,5.7,5.3c2.1,2.3,4.1,4.9,6.1,7.3
		c2.4,2.9,4.2,6.1,6,9.4c1.1,2.1,2.1,4.3,3.1,6.4c0.5,0.9,1.1,1.8,1.6,2.7c0,0.2,0,0.4,0,0.6c-4.3,6-7.8,12.4-10.7,19.3
		c0.7,0.1,1.1,0.2,1.6,0.3c-0.6,1.5-1.1,3-1.7,4.5c-1.7,4.4-3.5,8.8-4.2,13.5c-2.2,1.2-4.3,2.4-6.5,3.6c-0.6,0.3-0.7,0.8-0.6,1.4
		c0.1,1.8,0.2,3.7,0.4,5.5s0.4,3.5,0.6,5.3c0.2,1.8,0.4,3.5,0.6,5.3c0.1,1.2,0.3,2.5,0.4,3.7c0.2,2.9,0.4,5.8,0.7,8.7
		c0.3,3.4,0.7,6.8,0.9,10.1c0.2,4.8,0.2,9.5,0.3,14.3c-0.3-0.6-0.7-1.1-0.9-1.7c-0.8-3.5-1.6-6.9-2.3-10.4c-0.2-1-0.5-2-0.6-3
		c-0.3-2-0.6-3.9-0.9-5.9c-0.4-3-0.7-6-1.1-9c-0.1-1.2-0.2-2.4-0.4-3.5c-0.2-0.9-0.6-1.7-0.9-2.6c0-2.5,0-5-0.1-7.4
		c-0.1-2.1-0.2-4.2-0.3-6.3c0-0.7,0-1.5,0-2.2c0-0.4,0-0.7,0-1.1c2.7,0,3.2-0.4,3.7-3c0.7-3.7,0-7.2-1.4-10.5
		c-0.6-1.4-1.6-2.4-3.3-2.3C210.3,152.4,210.1,152.2,209.9,152.1z M216.4,135c-0.8,3.1-1.8,16.3-1.3,18.2c2.4-1.2,9.8-8.3,11-10.7
		C223.8,139.8,218.4,135.6,216.4,135z"/>
	<path class="st10" d="M237.3,125.7c0-0.2,0-0.4,0-0.6c1.9-2.5,3.8-5.1,5.8-7.6c1.3-1.6,2.6-3.1,4.1-4.6c0.7-0.8,1.5-1.5,2.7-1.6
		c-0.1,0.3-0.1,0.7-0.3,1c-1.3,2.5-2.2,5.1-2.4,7.9c-0.4,0.1-0.7,0.2-1.1,0.3c-1.4,0.5-2.1,1.8-2,3.2s1.2,2.5,2.6,2.7
		s2.9-0.6,3.5-1.9c0.5-1.2,0.2-2.6-0.9-3.5c-0.3-0.3-0.7-0.5-1.1-0.7c0.1-2.5,0.9-4.8,2-7c0.6-1.2,1.4-2.1,2.5-2.8
		c0.2,0.7,0.3,1.4,0.5,2c0.7,3.4,1.5,6.9,2.2,10.3c0.1,0.3,0.3,0.6,0.5,1c0.4-0.2,0.8-0.4,1.1-0.6c5.7-3.5,11.4-7,17.1-10.5
		c1.6-1,3.2-1.8,4.8-2.7c-0.9,2.2-1.8,4.4-2.6,6.6c-0.7,1.9-2,2.5-3.9,2.5c-3.3,0.1-6.1,2.2-7.2,5.3c-1.1,1.7-2.2,3.3-3.4,5
		c-2.2,3-1.7,6.1-0.2,9.2c0.3,0.6,1,1.1,1.6,1.6c0.4,0.3,1,0.2,1.2-0.3c0.1-0.3,0.1-0.7-0.1-1c-0.5-0.6-1-1.2-1.6-1.8
		c-1.3-1.2-1.5-2.7-1.1-4.3c0.2-0.7,0.5-1.4,0.9-2c1.2-1.9,2.5-3.7,3.8-5.6c0.7-0.8,1.4-1.6,2.1-2.4c0.7-1,1.7-1.6,2.8-1.8
		c4.1-0.8,8.7,2.1,7.7,7.3c-0.1,0.7-0.1,1.4-0.2,2.1c-0.1,0.6-0.2,1.2-0.4,1.7c-0.4,1.9-0.7,3.8-1.2,5.7c-0.6,2.2-2.7,3.6-4.9,3.7
		c-0.8,0-1.7,0.1-2.5,0.1c0.2,1.5,0.3,1.7,1.4,1.6c0.7,0,1.4-0.2,2-0.4c0.9-0.3,1.7-0.7,2.5-1.1c0.1,0.6,0.2,1.2,0.2,1.7
		c0.1,1.5,0.1,2.9,0.2,4.4c-2.9,0.9-5.4,2.3-6.9,5c-0.4,0.6-0.9,0.8-1.6,0.9c-1.8,0.3-3.5,0.7-5.2,1c-2.2,0.4-4.4,0.4-6.6,0
		c-2.5-0.4-5.1-0.8-7.7-1.2c-0.5-0.1-0.9-0.2-1.4-0.3c-0.6-0.2-1.1-0.4-1.7-0.5c-2.4-0.3-4.8-0.5-7.1-0.7c-0.2-1.3-0.4-2.7-0.6-4
		c0.3-1.9-0.5-3.7-0.9-5.5c-0.5-2-1.1-4.1-1.3-6.1c-0.3-3.1,0.8-5.9,1.9-8.7C237.2,127,237.8,126.5,237.3,125.7z"/>
	<path class="st11" d="M280.4,190.4c-1.3,0.5-2.6,0.9-3.9,1.4c-4.4,1.8-8.9,2.8-13.6,3.5c-4.6,0.7-9.3,0.8-13.9,0.5
		c-4.7-0.3-9.4-1.1-13.9-2.5c-1.9-0.6-3.7-1.2-5.5-1.8c-0.5-0.2-1-0.2-1.5-0.2c-0.4-0.4-0.7-0.8-1.2-1.2c1.1-6.6,1.8-13.3,4.6-19.6
		c1.3,0.1,2.7,0.2,4,0.3c6.1,0.3,12-0.3,17.8-2.1c1.3-0.4,2.5-0.4,3.8,0.2c4.4,1.8,8.9,3,13.6,3.7c1.9,0.3,3.8,0.6,5.8,0.9
		c1.5,4,2.9,7.9,4.4,11.9c0.5,1.2,0.9,2.4,1.4,3.7C281.6,189.5,281,190,280.4,190.4z"/>
	<path class="st12" d="M276.5,173.4c-1.9-0.3-3.8-0.6-5.8-0.9c-4.7-0.7-9.2-1.9-13.6-3.7c-1.3-0.5-2.4-0.6-3.8-0.2
		c-5.8,1.8-11.8,2.4-17.8,2.1c-1.4-0.1-2.7-0.2-4-0.3c-1.2-0.3-2.5-0.5-3.7-0.8c-0.4-0.1-0.8-0.2-1.2-0.3c-3-0.9-4-2.2-4.1-5.3
		c0-0.2,0-0.4,0-0.6c0.8-4.7,2.5-9.1,4.2-13.5c0.6-1.5,1.2-3,1.7-4.5c2.5,0.3,4.9,0.9,7.1,2.1c-0.8,2.2-1.5,4.4-2.2,6.6
		c-0.1,0.4,0.2,0.9,0.3,1.3c-0.4,1.5-0.9,2.9-1.3,4.4c1.2-0.1,2.5-0.1,3.7-0.3c4.8-1.1,9.7-1.6,14.6-2.1c2.6-0.3,5.3-0.3,7.9-0.4
		c1.5,0,2.9,0,4.4,0c0.3,1.6,0.7,3.3,1,4.9c0.1,0.3,0.1,0.5,0.2,0.8c0,0.2,0,0.3,0,0.5c0,0.5,0,1,0,1.8c3.4-1,6.6-1.9,9.7-2.8
		c1.9,0.8,3.8,1.6,6,1.8c0.3-2,0.6-3.9,0.9-5.7c0.4-0.2,0.8-0.3,1.2-0.5c0.8-0.5,0.9-1.1,0-1.6c-0.6-0.4-1.4-0.5-2.1-0.8
		c-0.3-0.1-0.6-0.2-1.2-0.4c2.2-0.5,4.3-0.3,6.1-1.6c-1.5-1.7-3.6-1.5-5.7-2.1c1.3-0.4,2.3-0.6,3.2-0.9c0.9-0.3,1.9-0.7,2.5-1.8
		c-1.2-0.7-2.4-0.9-3.7-0.9c-1.1,0-2.2,0-3.2,0c0.8-0.2,1.5-0.4,2.3-0.6c2.7,0,5.4-0.1,8.1,0c1.3,0,2.6,0.4,4,0.6
		c-0.5,5.8-1.2,11.7-2.9,17.3c-0.7,2.3-1.7,4.4-3,6.4C283.2,173.5,279.9,173.6,276.5,173.4z"/>
	<path class="st13" d="M257.8,271.8c-0.2-2.4-0.5-4.7-0.6-7.1c-0.6-8.9-1.2-17.7-1.7-26.6c-0.7-11.2-1.3-22.4-2-33.6
		c-0.1-1.2-0.2-2.4,0-3.7c0.2,0.4,0.4,0.7,0.6,1.1c4.2,10.3,8.5,20.6,12.6,31c5.1,13,10.1,26.1,15.1,39.1c0.1,0.3,0.2,0.6,0.3,0.9
		c-5.1,0.3-10.3,0-15.4-0.4C263.7,272.4,260.8,272.1,257.8,271.8z"/>
	<path class="st14" d="M183.9,233.1c0,9.1,0,18.3,0,27.4c0,0.3-0.1,0.6-0.1,1c-1.5,0-2.9,0-4.4,0.1c-4.5,0.3-9.1,0.1-13.6-0.5
		c-1.9-0.3-3.8-0.9-5.5-1.8c-0.8-0.4-1.7-0.8-2.5-1.2c1.1-2.6,2.1-5.2,3.3-7.7c2.5-5.6,5-11.1,7.4-16.7c0.1-0.2,0.3-0.4,0.4-0.7
		C174,233.3,179,233.5,183.9,233.1z"/>
	<path class="st12" d="M278.9,110c-1.6,0.9-3.2,1.7-4.8,2.7c-5.7,3.5-11.4,7-17.1,10.5c-0.3,0.2-0.7,0.4-1.1,0.6
		c-0.2-0.4-0.4-0.7-0.5-1c-0.8-3.4-1.5-6.8-2.2-10.3c-0.1-0.7-0.3-1.4-0.5-2c0-0.1,0.1-0.3,0.1-0.4c1.5-0.7,3-1.3,4.5-2.1
		c1.3-0.7,2.5-1.6,3-3.1c0.1-1.4,0.3-2.8,0.4-4.1c0.7-0.2,1.3-0.4,2-0.6c1.7-0.6,2.8-1.8,2.8-3.7c0.1-0.4,0.1-0.8,0.2-1.2
		c0-0.9,0-1.8,0-2.7c0.1-1.2,0.1-2.3,0.2-3.5c1-0.2,1.9-0.2,2.7-0.4c1.2-0.3,2.5-0.7,3.7-1.1c0.2,0,0.4-0.1,0.6-0.1
		c1.3-0.1,1.9,0.6,1.4,1.8c-0.2,0.7-0.7,1.3-1.2,1.8c-0.6,0.6-0.9,1.3-0.8,2.1c0.1,1.7,0.1,3.4,0.4,5.1c0.6,4.1,2.7,7.3,6.2,9.6
		c0.3,0.2,0.5,0.4,0.8,0.6C279.4,109,279.2,109.5,278.9,110z"/>
	<path class="st15" d="M179.4,71.2c-2.4-3-3.7-6.5-4.5-10.3c-0.2-0.9-0.3-1.8-0.4-2.7c-0.3-2.5,0.5-4.3,2.9-5.4
		c0-0.7-0.2-1.4-0.1-2.1c0.3-1.9,1.3-3.3,3.1-4c2.4-0.9,4.9-1.2,7.5-1.2c2.6-0.1,5.2-0.2,7.8-0.3c1.8-0.1,3.5-0.6,5.2-2.1
		c0.3,0.4,0.4,0.8,0.7,1.1c3.6,4.5,5.1,9.5,3.8,15.2c-0.2,0.7-0.3,1.4,0.2,2.1c0.3,0.4,0.1,1.2,0,1.9c-0.1,0.7-0.4,1.4-0.6,2
		c-0.1,0-0.3-0.1-0.4-0.1c0-0.6,0-1.2,0-1.8c-0.1-1.3-0.3-1.5-1.6-1.8c-1.9-0.4-3.6,0.1-5.3,0.8c-0.8,0.3-1.2,0.9-1.1,1.8
		c0,0.3,0,0.6,0,1c-0.2,0-0.3,0-0.5,0c-0.2-0.8-0.5-1.5-1.6-1.1c-0.2,0.4-0.4,0.8-0.7,1.3c-0.8-1.8-0.9-2-1.6-2.2
		c-2-0.4-4-0.4-5.9,0.6c-0.8,0.4-1.1,1-0.8,1.9c0.2,0.7,0.4,1.3,0.6,2c-0.2,0.1-0.4,0.2-0.6,0.2c-0.4-0.9-0.7-1.7-1.1-2.6
		c-0.8,0.3-1.5,0.5-2.1,0.8s-1.2,0.6-1.9,0.9c-0.5,0-1.1-0.1-1.6-0.1c-0.6,0-0.5,0.4-0.5,0.7C178.8,68.8,179.1,70,179.4,71.2z
		 M180.4,65.8c0.5-0.2,0.7-0.3,0.9-0.4c1.3-0.7,2.7-1.5,4-2c2.2-0.9,4.5-1.4,6.9-0.7c1.7,0.5,3.3,0.3,4.8-0.6
		c1.9-1.1,3.9-1.4,6.1-1.1c0.5,0.1,0.9,0,1.5,0c-0.4-2.5-1.1-4.8-2.1-7.1c-0.2,0.1-0.4,0.1-0.5,0.2c-5.4,3.1-10.9,3.3-16.5,0.8
		c-1.2-0.5-2.4-1.1-3.7-1.7c-2,1.5-3.1,3.4-2.7,5.9C179.7,61.2,180,63.4,180.4,65.8z"/>
	<path class="st6" d="M205.4,66.8c-0.1,2.3,0,4.7-0.4,6.9c-0.6,3.1-2,5.9-4.9,7.7c-0.6,0.2-1.3,0.3-1.9,0.5c-2.5,0.8-5,0.8-7.5-0.1
		s-4.7-2.4-6.6-4.3c-0.1-1.5-0.2-3-0.3-4.5c0-0.1-0.1-0.2-0.1-0.3c0-0.2,0-0.5-0.1-0.7l0.1-0.1c0-0.1-0.1-0.1-0.1-0.2
		c0-0.5-0.1-1.1-0.1-1.6c2.1-0.6,4.3-1.1,6.4-1.7c3.4-1,6.8-1.5,10.3-1.6c1,0,1.9-0.2,2.9-0.2C203.9,66.6,204.7,66.7,205.4,66.8z"/>
	<path class="st9" d="M177.7,84.7c0.2,1.6,0.3,3.2,0.5,4.8c0,0.5,0.1,0.9,0.2,1.4c0.1,2,0.2,4.1,0.3,6.1c0,4.9-0.3,9.8-1,14.7
		c-0.2-0.3-0.3-0.6-0.5-0.8c-1.3-3-3.7-4.4-6.9-4.4c-0.6,0-1.3,0-1.9,0c-1.3-4.5-1.6-8.9-0.9-13.4c0.3-2.1,0.8-4.2,1.2-6.3
		c1.6-0.4,3.1-0.7,4.7-1.1c0.5-0.1,0.9-0.4,1.4-0.6C175.8,84.9,176.8,84.8,177.7,84.7z"/>
	<path class="st16" d="M184.1,77.6c2,1.8,4.1,3.4,6.6,4.3s5,0.9,7.5,0.1c0.6-0.2,1.2-0.3,1.9-0.5c0,1.4,0.1,2.8,0.1,4.2
		c-1,3.1-3.2,4.8-6.4,5.4c-4.1,0.8-8,0.4-12-0.6c-0.2,0-0.4-0.1-0.6-0.2c-2.2-0.8-2.5-1.2-2.5-3.6c0-0.8-0.1-1.5-0.1-2.3
		c0.1-1.2,0.3-2.5,0.4-3.7c0.2-2.4,0.3-4.7,0.4-7.1c0.9-0.5,1.1,0.4,1.5,0.8C182,75.5,183.1,76.6,184.1,77.6z"/>
	<path class="st17" d="M211.9,185.2c0.3,0.9,0.7,1.7,0.9,2.6c0.2,1.2,0.3,2.3,0.4,3.5c0.3,3,0.7,6,1.1,9c0.3,2,0.6,3.9,0.9,5.9
		c0.2,1,0.4,2,0.6,3c0.8,3.5,1.5,6.9,2.3,10.4c0.1,0.6,0.6,1.1,0.9,1.7c0.5,1.9-0.6,3-2.2,3.7c-2.1,1-4.2,2.1-6.3,3.1
		c-0.8,0.2-1.6,0.4-2.5,0.6c0.2-2.1,0.4-4.3,0.7-6.4c0.4-4.1,0.8-8.2,1.2-12.3c0.6-6.5,1.1-13,1.6-19.5
		C211.6,188.8,211.8,187,211.9,185.2z"/>
	<path class="st18" d="M260.4,304.5c0.5,1.1,1.1,2.1,1.5,3.2c0.8,2.1,0,3.7-2.2,4.2c-0.9,0.2-1.8,0.3-2.7,0.3
		c-6.7,0-13.4,0-20.1-0.1c-0.9,0-1.8-0.3-2.6-0.7c-1.3-0.7-1.1-2.4,0.3-3s2.8-1.1,4.3-1.6c2.5-0.9,5.1-1.9,7.2-3.7
		c0.2-0.1,0.4-0.2,0.6-0.3c2.1,0.8,3.1,2.4,3.1,4.6c0,0.1,0.1,0.2,0.2,0.4C253.5,307.1,257,305.9,260.4,304.5z"/>
	<path class="st19" d="M183.5,308c0.5,0.7,1.1,0.4,1.7,0.2c3.9-1.3,7.8-2.5,11.7-3.8c0.7-0.2,1.4-0.4,2.2-0.7
		c3.6,1.4,7.2,2.9,10.8,4.3c0.3,0.1,0.6,0.3,0.8,0.5c0.5,0.6,1.2,1.1,0.8,2c-0.3,0.8-1.2,0.9-1.9,0.9c-8.7,0-17.4,0-26.1,0
		c-0.2,0-0.3-0.1-0.5-0.1c-0.1-0.8-0.1-1.6-0.2-2.4C182.6,308.3,183,308.2,183.5,308z"/>
	<path class="st18" d="M208.1,228.8c0.8-0.2,1.6-0.4,2.5-0.6c0.7,10.1,0.5,20.1-0.2,30.3c-1.9,0.2-3.8,0.4-5.6,0.6
		c0.1-1.7,0.2-3.3,0.4-5c0.3-2.3,0.6-4.6,0.9-6.9c0.3-2.5,0.6-4.9,0.9-7.4c0.3-2.4,0.5-4.7,0.7-7.1
		C207.8,231.5,207.9,230.1,208.1,228.8z"/>
	<path class="st19" d="M122.7,302c0.6,0.4,1.1,0.9,1.7,1.1c2,0.6,4,1.1,6.1,1.5c1.3,0.2,2.7,0.2,4,0.4c0,1.6,0,3.1,0.1,4.7
		c0.1,1-0.5,1.5-1.3,1.8c-0.6,0.2-1.2,0.3-1.7,0.3c-3.5-0.1-6.9-0.1-10.4-0.3c-1,0-1.9-0.3-2.8-0.6c-1.5-0.5-1.9-1.5-1-2.9
		C118.7,305.6,120.5,303.6,122.7,302z"/>
	<path class="st9" d="M205,113.6c-0.8-7.2-1.7-14.4-3.1-21.5c-0.4-2-0.7-4-1-6c1.5,0.3,3,0.5,4.2,1.4c0.1,0.5,0.2,1.1,0.4,1.5
		c2.7,5.9,3.4,12.2,2.7,18.6c-0.2,2-0.8,3.9-1.2,5.9C206.3,113.5,205.7,113.5,205,113.6z"/>
	<path class="st18" d="M304,307.8c1.7,1.2,2,3,2.1,4.8c0,0.3-0.4,0.7-0.7,1c-0.3,0.2-0.8,0.3-1.2,0.4c-2.8,0.2-5.5,0.3-8.3,0.4
		c-1.8,0.1-3-1-2.8-3.1c0.1-1.3,0.4-2.6,1.7-3.3c2-0.1,4-0.4,6-0.4C301.9,307.5,302.9,307.7,304,307.8z"/>
	<path class="st20" d="M260.4,304.5c-3.4,1.4-6.9,2.6-10.5,3.4c-0.1-0.2-0.2-0.3-0.2-0.4c0-2.2-1-3.8-3.1-4.6c0.3-0.7,0.6-1.5,1-2.2
		c3.9,1,7.7,1.6,11.7,0.6C259.6,302.3,260,303.4,260.4,304.5z"/>
	<path class="st21" d="M205.4,66.8c-0.7-0.1-1.5-0.3-2.2-0.3c-1,0-1.9,0.2-2.9,0.2c-3.5,0.1-6.9,0.6-10.3,1.6
		c-2.1,0.6-4.3,1.1-6.4,1.7c-0.2-0.7-0.7-1-1.3-1.3c-1.1-0.6-2.2-1.3-3.3-1.9c0.5,0,1.1,0.1,1.6,0.1c1.7,1.6,3.4,1.8,5.1,0.9
		c0.2-0.1,0.4-0.2,0.6-0.2c1.5-0.6,3-1.1,4.5-1.7c0.1,0,0.2-0.1,0.3-0.1c1.7-0.2,3.4-0.5,5.1-0.7c0.2,0,0.3,0,0.5,0
		c0.9-0.1,1.9-0.2,2.8-0.3c0.2,0,0.4,0,0.6,0c1.5,0.1,3,0.2,4.5,0.3c0.1,0,0.3,0.1,0.4,0.1C205.2,65.8,205.3,66.3,205.4,66.8z"/>
	<path class="st20" d="M304,307.8c-1.1-0.1-2.2-0.3-3.2-0.3c-2,0.1-4,0.3-6,0.4c0.1-0.3,0.2-0.7,0.4-1c0.8-1.2,0.9-2.5,1.1-3.9
		c2.1-0.1,4.2-0.1,6.2-0.2c0.3,1.1,0.6,2.3,0.9,3.4C303.6,306.8,303.8,307.3,304,307.8z"/>
	<path class="st20" d="M179,66.9c1.1,0.6,2.2,1.3,3.3,1.9c0.6,0.3,1.1,0.7,1.3,1.3c0,0.5,0.1,1.1,0.1,1.6c-0.1,0.1,0,0.2,0,0.3
		c0,0.2,0,0.5,0.1,0.7l-0.1,0.1c0,0.1,0.1,0.1,0.2,0.2c0.1,1.5,0.2,3,0.3,4.5c-1.1-1-2.1-2.1-3.2-3.1c-0.4-0.4-0.6-1.3-1.5-0.8
		c0-0.8,0-1.7-0.1-2.5c-0.3-1.2-0.6-2.4-0.8-3.6C178.4,67.2,178.4,66.8,179,66.9z"/>
	<path class="st15" d="M207,113.4c0.4-1.9,0.9-3.9,1.2-5.9c0.7-6.4,0-12.6-2.7-18.6c-0.2-0.5-0.3-1-0.4-1.5c0.4,0.3,0.8,0.6,1.2,0.9
		c2.3,5.4,3.4,11,3,16.9c-0.2,2.5-0.7,4.9-1.1,7.4c-0.1,0.4-0.1,0.7-0.2,1.1C207.6,113.6,207.3,113.5,207,113.4z"/>
	<path class="st8" d="M260.7,100.8c-0.1,1.4-0.3,2.8-0.4,4.1c-3.4-1.3-6.4-3.1-8.8-5.8l0,0c0.2,0,0.4,0,0.6,0.1
		C254.8,100.9,257.7,101.2,260.7,100.8z"/>
	<path class="st19" d="M252.8,110.1c0,0.1-0.1,0.3-0.1,0.4c-1.1,0.7-1.9,1.7-2.5,2.8c-1.1,2.2-1.9,4.5-2,7c-0.3,0-0.7-0.1-1-0.1
		c0.2-2.8,1.1-5.4,2.4-7.9c0.2-0.3,0.2-0.7,0.3-1l0,0c0.1-0.1,0.2-0.2,0.4-0.3C251,110.4,251.9,110.2,252.8,110.1z"/>
	<path class="st14" d="M183.7,269.6c0,1.1,0,2.2,0,3.3C183.7,271.8,183.7,270.7,183.7,269.6z"/>
	<path class="st10" d="M250.3,111.1c-0.1,0.1-0.2,0.2-0.4,0.3C250.1,111.3,250.2,111.2,250.3,111.1z"/>
	<path class="st8" d="M251.3,98.7c-0.1-0.1-0.2-0.2-0.3-0.3l0,0C251,98.5,251.1,98.6,251.3,98.7L251.3,98.7z"/>
	<path class="st8" d="M251.6,99c-0.1-0.1-0.2-0.2-0.3-0.3l0,0C251.4,98.8,251.5,98.9,251.6,99L251.6,99z"/>
	<path class="st9" d="M166,87.6c0.6-0.2,1.3-0.3,1.9-0.5c-2,6.5-2.3,13.1-0.4,19.6c-0.4,0.2-0.7,0.3-0.9,0.4s-0.5,0.2-0.7,0.4
		c-3.1,1.8-4.8,4.5-4.4,8.2c0.1,1.2,0.4,2.5,0.8,3.6c1.4,3.6,3.9,6.3,7.2,8.3c0.7,0.4,1.3,0.9,2.2,1.6c-1.1,0.5-1.8,1-2.6,1.3
		c-1.2,0.3-2.3,0.4-3.1-0.9c-0.6-0.9-1.7-1.5-2.8-1.6c-0.5,1.3-0.4,1.8,0.7,2.5c2.4,1.3,5.2,1.8,7.8-0.2c0.7-0.6,1.4-0.9,2.3-0.4
		c-2.4,7.5-4.9,15-7.3,22.6c-2.2,0.2-3.4,1.5-4.3,3.4c-0.2,0.5-0.5,1.1-0.7,1.6c-3.2-1.8-6.3-3.5-9.5-5.3c-0.7-0.4-1.3-1-1.9-1.4
		c0.1-0.5,0.2-1,0.3-1.4c1.3-5,2-10.1,2-15.3c0-1.6-0.2-3.2-0.4-5c-0.6,0.5-1,0.8-1.3,1.1c-0.7,0.2-1.4,0.4-1.9,0.7
		c-1.2,0.9-2.5,1.8-3.6,2.8c-3.4,3.2-6.6,6.7-9.1,10.7c-1.5,2.3-1.5,2.3,1,3.6c1.5,0.8,3,1.5,4.4,2.3c1.7,1,3.4,2.1,5.1,3.1
		c4.1,2.3,8.2,4.6,12.3,6.8c0.5,0.3,1.1,0.6,1.7,0.9c-0.1,0.6-0.2,1.3-0.2,1.9c-0.2,1.9-0.2,3.7,1.1,5.3c0,0.6,0,1.3,0.1,1.9
		c0.1,1.3,0.3,2.6,0.4,3.9c0.1,2.5,0.2,5.1,0.3,7.6c0.2,3.5,0.4,6.9,0.6,10.4c0.3,4.8,0.6,9.6,0.8,14.4c0.2,3.2,0.3,6.4,0.5,9.6
		c0.1,2,0.3,4.1,0.5,6.1c0,0.5,0.1,1,0,1.5c-0.1,1.1-0.6,1.8-1.7,2.1c-4.4,1.1-8.7,1.2-12.8-1.1c-2.1-1.2-4.1-2.6-6.2-3.9
		c-0.5-0.3-1.1-0.6-1.7-0.9c-0.4-0.3-0.7-0.7-1.1-0.9c-3.6-2.2-7.5-3.3-11.7-3.2c-2.4,0.1-4.8,0.4-7.2,0.8c-1.5,0.2-3.1,0.6-4.5,1.1
		c-2.2,0.8-4.3,1.8-6.4,2.6c-1,0.4-1.6,1-1.7,2.1c-0.5-0.7-0.2-1.3,0-2c1.6-5.8,4.2-11.3,7.2-16.5c4.1-6.9,9-13.3,14-19.5
		c4.7-5.8,9-11.9,12.6-18.5c0.3-0.5,0.5-1,0.9-1.7c-2.1-0.9-4.1-1.6-6.1-2.5c-5.2-2.1-10.4-4.3-15.2-7.4c-2.5-1.6-4.8-3.5-6.8-5.8
		c-1.9-2.3-2.4-4.9-2.1-7.7c0.9-8.6,4.7-15.9,10-22.5c6.8-8.4,15.1-15.2,24.2-21C154.2,93.4,159.9,90.2,166,87.6z"/>
	<path class="st17" d="M110,222.1c0.1-1.1,0.6-1.7,1.7-2.1c2.2-0.8,4.2-1.8,6.4-2.6c1.5-0.5,3-0.9,4.5-1.1c2.4-0.4,4.8-0.7,7.2-0.8
		c4.2-0.1,8.1,1,11.7,3.2c0.4,0.2,0.7,0.6,1.1,0.9c-0.7,2.7-1.5,5.3-2.2,8c-2.8-0.8-5.6-1.7-8.5-1.9c-1.8-0.1-3.7-0.1-5.5,0
		c-2.7,0.1-5.4,0.4-8.1,0.4c-2,0-3.9-0.5-5.6-1.4C111.5,224.2,110.3,223.6,110,222.1z"/>
	<path class="st17" d="M183.9,233.1c-5,0.5-9.9,0.2-14.9-0.1c0.1-0.4,0.2-0.8,0.4-1.2c4.3-9.6,8.7-19.1,13.7-28.3
		c0.2-0.5,0.5-0.9,0.8-1.4c0.1,0.2,0.3,0.2,0.3,0.3C184.1,212.6,184,222.8,183.9,233.1z"/>
	<path class="st0" d="M162.2,173.8c-0.1-1.3-0.3-2.6-0.4-3.9c1.3,0.2,2.6,0.4,3.9,0.7c1.8,0.3,3.6,0.7,5.4,0.9
		c2.9,0.3,5.9,0.5,8.8,0.7c1.9,0.1,3.9,0.4,5.8,0.3c4.9-0.3,9.9-0.4,14.7-1.5c3.3-0.7,6.6-1.5,9.9-2.2c0.6-0.1,0.9,0.1,1.2,0.5
		c0,0.7,0,1.5,0,2.2c-1,0.4-2,0.8-3,1.3c-3.8,1.7-7.9,2.5-12,3.1c-4.7,0.7-9.5,0.7-14.2,0.5c-3-0.1-6-0.5-9-0.9
		C169.6,175,165.9,174.4,162.2,173.8z"/>
	<path class="st22" d="M284.3,109.7c2.1-0.6,4.3-1.1,6.4-1.7c3-0.8,5.8-2.1,8.5-3.5c3.7,1,7.4,1.9,11,3.1c6.5,2.1,12.3,5.5,17.8,9.5
		c3,2.2,6,4.4,8.8,6.9c3.7,3.4,7.2,7,10.7,10.6c0.6,0.6,1.2,1.2,1.8,1.9c2.5,2.8,5,5.6,7.5,8.5c1.4,1.6,2.9,3.2,4.3,4.8
		c-0.9,0.7-1.8,0.4-2.7-0.1c-3.5-1.7-6.9-3.4-10.4-5c-3.8-1.7-7.6-3.4-11.4-5.1c-2.2-1-4.3-1.9-6.5-2.9c-6-2.8-11.9-5.5-17.9-8.3
		c-4.4-2-8.8-4.1-13.2-6.1c-2.5-1.2-5-2.3-7.5-3.4C290.9,114.5,288.7,111.2,284.3,109.7z"/>
	<path class="st10" d="M284.3,109.7c4.3,1.6,6.5,4.8,7.3,9.2c0.3,2,0.6,3.9,0.9,5.9c1.1,7,1.4,14.1,1.2,21.1c0,0.5,0,1,0,1.5
		c-0.6,0-1.3,0.1-1.9,0.1c-1.3-0.2-2.6-0.5-4-0.6c-2.7-0.1-5.4,0-8.1,0c-0.5-2.2-1-4.3-1.5-6.5c-0.1-0.4-0.4-0.7-0.6-1
		c0.3-0.9,0.6-1.7,0.8-2.6c0.4-2,0.8-4,1.2-6c0.2-1,0.5-2,0.6-3c0.3-2-0.1-3.8-1.5-5.4c-0.3-0.3-0.6-0.7-0.9-1
		c-1.1-1.3-1.3-2.6-0.6-4.2c1.2-2.7,2.3-5.6,3.5-8.3C282.1,109.1,283.2,109.4,284.3,109.7z"/>
	<path class="st8" d="M174,129.8c-0.9-0.5-1.6-0.2-2.3,0.4c-2.6,2-5.4,1.6-7.8,0.2c-1.1-0.6-1.2-1.2-0.7-2.5
		c1.2,0.1,2.2,0.7,2.8,1.6c0.9,1.3,2,1.2,3.1,0.9c0.8-0.2,1.5-0.7,2.6-1.3c-0.9-0.7-1.5-1.2-2.2-1.6c-3.3-2-5.8-4.7-7.2-8.3
		c-0.4-1.2-0.7-2.4-0.8-3.6c-0.4-3.7,1.3-6.3,4.4-8.2c0.2-0.1,0.5-0.2,0.7-0.4c0.2-0.1,0.5-0.2,0.9-0.4c-1.8-6.6-1.5-13.1,0.4-19.6
		c0.3-0.1,0.5-0.2,0.8-0.3c-0.4,2.1-0.8,4.2-1.2,6.3c-0.7,4.5-0.4,8.9,0.9,13.4c0.6,0,1.3,0,1.9,0c3.2,0,5.6,1.4,6.9,4.4
		c0.1,0.3,0.3,0.6,0.5,0.8c0.3,2.1,0.5,4.2,0.2,6.3c-0.5,3.2-1.8,6.1-3.5,8.8c-0.4,0.6-0.8,1.2-1.4,2c0.6,0,0.9,0,1.3,0
		c1,0.1,1.9,0.3,2.7-0.5c0.7-0.4,1.1-1,1.4-1.7c0.4-1.2,1.1-2.2,2-3.1c1,0.8,1.2,1.4,0.5,2.4c-1.2,1.7-2.6,3.1-4.8,3.7
		c-0.2,0-0.3,0.1-0.4,0.2C175.1,129.8,174.6,129.8,174,129.8z M172.2,128.2c3-3.7,4.8-7.8,4.9-12.5c0.1-1.5-0.2-3-0.7-4.4
		c-0.9-2.2-2.6-3.4-4.9-3.7c-4.9-0.7-10.7,3-8.8,10.1C164.1,122.7,167.7,125.7,172.2,128.2z"/>
	<path class="st23" d="M187.3,98.1c1.2-1.3,2.3-2.5,3.6-3.9c1.4,1.3,2.7,2.6,4.1,3.9c-0.1,0.3-0.1,0.7-0.3,0.9
		c-1,1.9-0.9,3.7-0.2,5.8c1.4,4.3,2,8.9,2.5,13.4c1.2,11.4,1.6,22.9,1.7,34.4c0,1.2-0.3,2-1.3,2.7c-2.4,1.6-4.7,3.4-7.1,5.2
		c-2.7-2-5.4-3.9-8.1-5.8c-0.7-0.5-0.4-1.1-0.3-1.6c0.5-2.5,1.2-5.1,1.6-7.6c1-5.8,2-11.6,2.8-17.5c1-6.9,1.9-13.7,2.8-20.6
		c0.1-1,0.2-1.9,0.4-2.9c0.3-1.8,0-3.3-1.1-4.8C187.9,99.3,187.6,98.7,187.3,98.1z"/>
	<path class="st14" d="M161.8,168c-1.3-1.6-1.3-3.4-1.1-5.3c0.1-0.6,0.1-1.3,0.2-1.9c0.3-1.2,0.6-2.3,0.9-3.5
		c0.2-0.5,0.5-1.1,0.7-1.6c0.9-1.8,2.1-3.2,4.3-3.4c0.9,0.3,1.7,0.6,2.6,1c1.8,0.1,2.9,0.9,3.2,2.8c0.1,0.7,0.3,1.4,0.4,2.3
		c-1.3,0.1-2.4,0.1-3.6,0.2c0.4,0.7,0.7,1.3,1.1,2c-1,0.1-1.9,0.1-2.8,0.2c-0.5,2.2-0.4,4.4-1.5,6.4c-0.6,0.2-1.1,0.3-1.6,0.6
		C163.5,168.3,162.6,168.5,161.8,168z"/>
	<path class="st14" d="M209.9,152.1c0.2,0.1,0.4,0.3,0.5,0.3c1.7-0.1,2.8,0.9,3.3,2.3c1.4,3.4,2.1,6.9,1.4,10.5c-0.5,2.7-1,3-3.7,3
		c-2.7-2-2.8-4.9-2.5-7.9c-1.1-0.1-1.9-0.2-2.9-0.3c0.2-0.7,0.4-1.3,0.6-1.9c-1.1-0.3-2.1-0.7-3.2-1c0.5-1.3,1-2.4,1.5-3.9
		C206.5,153,208.2,152.5,209.9,152.1z"/>
	<path class="st24" d="M174.4,126.8c1.7-2.8,3-5.6,3.5-8.8c0.3-2.1,0.1-4.2-0.2-6.3c0.7-4.9,1-9.8,1-14.7c0-2-0.2-4.1-0.3-6.1
		c1.1,1.2,1.3,2.8,1.6,4.3c0.3,1.8,0.5,3.7,0.7,5.6s0.4,3.9,0.3,5.8c-0.1,2.5-0.3,5-0.8,7.4c-0.9,4.3-2.1,8.4-3.2,12.7
		c-0.1,0.6-0.4,1.1,0.1,1.7c-0.8,0.8-1.8,0.6-2.7,0.5C174.4,128.1,174.4,127.5,174.4,126.8z"/>
	<path class="st24" d="M169.3,153.3c-0.9-0.3-1.7-0.6-2.6-1c2.4-7.5,4.9-15,7.3-22.6c0.6,0,1.2,0,1.7,0c-0.6,2.1-1.1,4.2-1.7,6.3
		c-1.5,5.2-3,10.3-4.5,15.5C169.4,152.2,169.4,152.8,169.3,153.3z"/>
	<path class="st10" d="M207,113.4c0.3,0.1,0.7,0.2,1,0.3c2,0.8,3,2.5,2.7,4.4c-0.3,2-1.8,3.3-3.9,3.6c-0.3,0-0.5,0.1-0.8,0.1
		c-0.6-0.3-1.3-0.5-1.9-0.8c-2.4-1.6-2.2-5.2-0.3-6.5c0.4-0.3,0.8-0.6,1.2-0.8C205.7,113.5,206.3,113.5,207,113.4z M206.7,114.2
		c-1.9,0-3.3,1.3-3.4,3.2c-0.1,2,1.3,3.4,3.3,3.5c1.9,0,3.3-1.4,3.4-3.2C210.1,115.8,208.6,114.3,206.7,114.2z"/>
	<path class="st24" d="M161.8,168c0.9,0.5,1.7,0.3,2.6-0.1c0.5-0.3,1.1-0.4,1.6-0.6c-0.1,1.1-0.2,2.2-0.3,3.3
		c-1.3-0.2-2.6-0.4-3.9-0.7C161.8,169.3,161.8,168.7,161.8,168z"/>
	<path class="st6" d="M251.6,99c-0.1-0.1-0.2-0.2-0.3-0.3c-0.1-0.1-0.2-0.2-0.3-0.3c-0.2-0.4-0.2-0.8-0.5-1.2
		c-1.7-2.7-2.5-5.8-2.7-9c0-1.1,0.3-2.2,0.4-3.3c0.4,0.5,0.8,0.1,1.1-0.1c2.4-1.5,4.8-1.2,7.3-0.4c2.7,0.8,5,2.3,7.2,4.1
		c1.1,0.9,1.9,1.7,1.7,3.2c0,0.2,0.1,0.5,0.2,0.8c0,0.9,0,1.8,0,2.7c-0.1,0.4-0.1,0.8-0.2,1.2c0,1.9-1.1,3.1-2.8,3.7
		c-0.7,0.2-1.3,0.4-2,0.6c-3,0.4-5.9,0.2-8.6-1.6C252,99.1,251.8,99.1,251.6,99z"/>
	<path class="st20" d="M248.4,83.8c0.2-1.4,0.4-2.8,0.6-4.2c1.1,0,2,0,3.2,0c-0.9-1.1-2-0.5-2.9-0.8c-0.3-1.6,0.4-2.5,1.8-3.2
		c2.9-1.3,5.9-1.9,9-1.3C264,75,268,75.4,272,75c0.5-0.1,1.1,0,1.6,0c0.1,0,0.2,0.1,0.4,0.2c-1.8,3.7-2.2,7.7-1.8,11.8
		c-1.4,0.3-2.9,0.5-4.3,0.8c-1.5,0.3-2.7,0.2-3.9-0.9c-0.8-0.7-1.7-1.3-2.6-1.9c-2.3-1.4-4.7-2.6-7.5-2.7
		C251.8,82.3,250.1,83,248.4,83.8z M260.1,79.9c1.7,0.4,3.2,0.7,4.8,1.1C263.3,79.1,262.1,78.9,260.1,79.9z M261.7,83.8
		c1-0.8,1.2-1.2,0.7-1.7c-0.2-0.2-0.7-0.3-1-0.1C260.9,82.3,261,82.8,261.7,83.8z M250.4,80c-0.4,0.6-0.6,0.9-0.7,1.2
		c-0.1,0.5,0.1,1,0.8,1c0.2,0,0.5-0.5,0.5-0.8C251,81,250.7,80.6,250.4,80z"/>
	<path class="st19" d="M280.9,108.8c-1.2,2.8-2.2,5.6-3.5,8.3c-0.7,1.6-0.5,2.9,0.6,4.2c0.3,0.3,0.6,0.6,0.9,1
		c1.4,1.6,1.8,3.4,1.5,5.4c-0.2,1-0.4,2-0.6,3c-0.4-0.1-0.8-0.3-1.1-0.4c0.1-0.7,0.1-1.4,0.2-2.1c1-5.2-3.6-8.1-7.7-7.3
		c-1.1,0.2-2.1,0.8-2.8,1.8c-0.6,0.9-1.4,1.6-2.1,2.4c-0.4-0.2-0.7-0.4-1.1-0.6c1.1-3.1,3.9-5.2,7.2-5.3c1.9,0,3.2-0.6,3.9-2.5
		c0.8-2.2,1.7-4.4,2.6-6.6c0.3-0.5,0.5-1.1,0.8-1.6C280.1,108.6,280.5,108.7,280.9,108.8z"/>
	<path class="st21" d="M248.4,83.8c1.7-0.8,3.4-1.5,5.4-1.4c2.8,0.1,5.2,1.3,7.5,2.7c0.9,0.6,1.8,1.2,2.6,1.9
		c1.2,1.1,2.5,1.2,3.9,0.9c1.4-0.3,2.9-0.6,4.3-0.8c0.1,0.2,0.1,0.3,0.2,0.5c-1.2,0.4-2.5,0.8-3.7,1.1c-0.8,0.2-1.7,0.3-2.7,0.4
		c-0.1,1.2-0.1,2.3-0.2,3.5c-0.1-0.3-0.2-0.5-0.2-0.8c0.2-1.5-0.6-2.3-1.7-3.2c-2.2-1.8-4.5-3.3-7.2-4.1c-2.5-0.7-4.9-1.1-7.3,0.4
		c-0.3,0.2-0.7,0.6-1.1,0.1C248.3,84.5,248.4,84.2,248.4,83.8z"/>
	<path class="st3" d="M235.4,147.4c-2.2-1.2-4.7-1.7-7.1-2.1c-0.5-0.1-0.9-0.2-1.6-0.3c2.9-6.9,6.3-13.3,10.7-19.3
		c0.5,0.7-0.1,1.3-0.4,1.9c-1.1,2.8-2.2,5.7-1.9,8.7c0.2,2.1,0.8,4.1,1.3,6.1c0.4,1.8,1.2,3.6,0.9,5.5
		C236.6,147.8,236,147.6,235.4,147.4z"/>
	<path class="st18" d="M277.6,147.5c1.1,0,2.2,0,3.2,0c1.2,0,2.5,0.2,3.7,0.9c-0.6,1-1.5,1.4-2.5,1.8c-1,0.3-1.9,0.6-3.2,0.9
		c2.1,0.6,4.2,0.4,5.7,2.1c-1.8,1.3-3.9,1-6.1,1.6c0.6,0.2,0.9,0.3,1.2,0.4c0.7,0.3,1.5,0.4,2.1,0.8c0.8,0.5,0.8,1.1,0,1.6
		c-0.4,0.2-0.8,0.4-1.2,0.5c-0.9,0.1-1.9,0.2-2.8,0.4c-0.6,0.1-1.3,0.1-1.8,0.4c-0.9,0.4-1.8,1-2.6,1.5c-1.5,1-3.1,1.6-4.9,1.9
		c-1.5,0.2-2.9,0.4-4.4,0.7c0-0.2,0-0.3,0-0.5c-0.1-0.3-0.1-0.5-0.2-0.8c-0.3-1.6-0.7-3.3-1-4.9c-0.1-0.7-0.3-1.5-0.4-2.2
		c1.7-0.3,3.5-0.7,5.2-1c0.7-0.1,1.2-0.3,1.6-0.9c1.5-2.7,4-4.1,6.9-5c0.2,0,0.4,0,0.6,0C276.9,147.7,277.3,147.6,277.6,147.5
		L277.6,147.5z"/>
	<path class="st18" d="M232.1,159.8c0.4-1.5,0.9-2.9,1.3-4.4c1.2-1.4,2.5-2.8,4.4-3.3c2.4,0.2,4.8,0.4,7.1,0.7
		c0.6,0.1,1.1,0.3,1.7,0.5c-0.8,1.2-1.5,2.5-2.3,3.7c-1,0.1-1.9,0.2-2.9,0.4C238.3,157.8,235.1,158.3,232.1,159.8z"/>
	<path class="st16" d="M232.1,159.8c3-1.5,6.2-2,9.4-2.4c1-0.1,1.9-0.3,2.9-0.4c2.8-0.3,5.6-0.7,8.3-1c0-0.1,0-0.3,0.1-0.4
		c-0.5-0.2-1.1-0.3-1.6-0.5c-1.1-0.5-2.1-1-3.2-1.5c2.6,0.4,5.1,0.8,7.7,1.2c2.2,0.4,4.4,0.4,6.6,0c0.1,0.7,0.3,1.5,0.4,2.2
		c-1.5,0-2.9,0-4.4,0c-2.6,0.1-5.3,0.1-7.9,0.4c-4.9,0.5-9.8,1-14.6,2.1C234.6,159.7,233.3,159.6,232.1,159.8z"/>
	<path class="st11" d="M275.6,141.6c0.7-0.8,1.4-1.6,2.1-2.3c0.2,0.3,0.5,0.7,0.6,1c0.5,2.2,1,4.3,1.5,6.5c-0.8,0.2-1.5,0.4-2.3,0.6
		l0,0c-0.4,0.1-0.7,0.2-1.1,0.3c-0.2,0-0.4,0-0.6,0c0-1.5-0.1-2.9-0.2-4.4C275.8,142.8,275.7,142.2,275.6,141.6z"/>
	<path class="st16" d="M237.8,152c-1.9,0.6-3.2,1.9-4.4,3.3c-0.1-0.4-0.4-0.9-0.3-1.3c0.7-2.2,1.5-4.4,2.2-6.6
		c0.6,0.2,1.2,0.4,1.9,0.6C237.4,149.3,237.6,150.7,237.8,152z"/>
	<path class="st20" d="M248,153.5c1.1,0.5,2.1,1,3.2,1.5c0.5,0.2,1,0.3,1.6,0.5c0,0.1,0,0.3-0.1,0.4c-2.8,0.3-5.6,0.7-8.3,1
		c0.8-1.2,1.5-2.5,2.3-3.7C247.1,153.3,247.6,153.4,248,153.5z"/>
	<path class="st17" d="M247.2,120.3c0.3,0,0.7,0.1,1,0.1c0.4,0.2,0.8,0.4,1.1,0.7c1.1,0.9,1.4,2.4,0.9,3.5c-0.6,1.3-2.1,2.1-3.5,1.9
		c-1.4-0.3-2.5-1.3-2.6-2.7s0.6-2.7,2-3.2C246.4,120.5,246.8,120.4,247.2,120.3z M249.4,123.4c0-1.2-1.1-2.3-2.3-2.3
		c-1.2,0-2.2,1.1-2.2,2.3c0,1.3,1,2.2,2.3,2.2C248.5,125.7,249.4,124.7,249.4,123.4z"/>
	<path class="st16" d="M277.7,158.6c0.9-0.1,1.9-0.2,2.8-0.4c-0.3,1.9-0.6,3.8-0.9,5.7c-2.2-0.3-4.1-1-6-1.8
		C275,161,276.3,159.8,277.7,158.6z"/>
	<path class="st18" d="M277.7,158.6c-1.3,1.2-2.7,2.4-4,3.5c-3.2,0.9-6.3,1.8-9.7,2.8c0-0.7,0-1.3,0-1.8c1.5-0.2,2.9-0.4,4.4-0.7
		c1.8-0.3,3.4-0.9,4.9-1.9c0.8-0.6,1.7-1.1,2.6-1.5C276.4,158.7,277.1,158.7,277.7,158.6z"/>
	<path class="st18" d="M263.7,161.8c0.1,0.3,0.1,0.5,0.2,0.8C263.8,162.4,263.8,162.1,263.7,161.8z"/>
	<path class="st21" d="M265.6,96.4c0.1-0.4,0.1-0.8,0.2-1.2C265.7,95.6,265.6,96,265.6,96.4z"/>
	<path class="st20" d="M180.4,65.8c-0.4-2.4-0.7-4.6-1.1-6.8c-0.4-2.5,0.7-4.4,2.7-5.9c1.2,0.5,2.4,1.1,3.7,1.7
		c5.6,2.5,11.1,2.3,16.5-0.8c0.1-0.1,0.3-0.1,0.5-0.2c1,2.2,1.7,4.5,2.1,7.1c-0.6,0-1.1,0.1-1.5,0c-2.2-0.3-4.2,0-6.1,1.1
		c-1.6,0.9-3.2,1.1-4.8,0.6c-2.4-0.7-4.7-0.2-6.9,0.7c-1.4,0.6-2.7,1.4-4,2C181.1,65.5,180.9,65.6,180.4,65.8z"/>
	<path class="st20" d="M196.2,65.1c-1.7,0.2-3.4,0.5-5.1,0.7c-1.1-1.1-1.7-1.1-2.5,0c0.7,0,1.5,0.1,2.2,0.1c-1.5,0.6-3,1.1-4.5,1.7
		c-0.2-0.7-0.5-1.3-0.6-2c-0.2-0.8,0-1.4,0.8-1.9c1.9-1,3.9-1,5.9-0.6c0.8,0.1,0.9,0.4,1.6,2.2c0.3-0.5,0.5-0.9,0.7-1.3
		C195.7,63.6,195.9,64.3,196.2,65.1z"/>
	<path class="st20" d="M199.5,64.8c-0.9,0.1-1.9,0.2-2.8,0.3c0-0.3,0-0.6,0-1c-0.1-0.9,0.3-1.4,1.1-1.8c1.7-0.7,3.4-1.2,5.3-0.8
		c1.2,0.3,1.5,0.5,1.6,1.8c0,0.6,0,1.2,0,1.8c-1.5-0.1-3-0.2-4.5-0.3c0.6-0.3,1.2-0.7,2-1.1C200.4,63.4,200.2,63.5,199.5,64.8z"/>
	<path class="st20" d="M185.6,67.8c-1.7,1-3.4,0.7-5.1-0.9c0.6-0.3,1.2-0.6,1.9-0.9c0.6-0.3,1.3-0.5,2.1-0.8
		C184.9,66.1,185.3,67,185.6,67.8z"/>
	<path class="st21" d="M183.7,72c-0.1-0.1-0.1-0.2,0-0.3C183.7,71.8,183.8,71.9,183.7,72C183.8,71.9,183.8,72,183.7,72z"/>
	<path class="st21" d="M183.9,73.1c-0.1-0.1-0.1-0.1-0.2-0.2c0,0,0-0.1,0.1-0.1C183.8,72.8,183.9,72.9,183.9,73.1z"/>
	<path class="st19" d="M190.7,65.9c-0.7,0-1.5-0.1-2.2-0.1c0.8-1.1,1.4-1.1,2.5,0C190.9,65.8,190.8,65.9,190.7,65.9z"/>
	<path class="st19" d="M199.5,64.8c0.7-1.3,0.9-1.4,2.6-1.1c-0.8,0.4-1.4,0.7-2,1.1C199.9,64.8,199.7,64.8,199.5,64.8z"/>
	<path class="st18" d="M150.9,130c0.4-0.3,0.7-0.6,1.3-1.1c0.1,1.8,0.4,3.4,0.4,5c0,5.2-0.7,10.3-2,15.3c-0.1,0.5-0.2,0.9-0.3,1.4
		c-0.5-0.1-1-0.2-1.5-0.4c-2.9-1.8-5.8-3.6-8.7-5.4c-0.5-0.3-0.9-0.7-1.5-1.1c1.9-2.1,3.7-4.1,5.5-6.1
		C146.5,135.1,148.7,132.5,150.9,130z"/>
	<path class="st17" d="M150.9,130c-2.2,2.6-4.4,5.1-6.7,7.7c-1.8,2-3.6,4-5.5,6.1c0.6,0.4,1,0.8,1.5,1.1c2.9,1.8,5.8,3.6,8.7,5.4
		c0.4,0.3,1,0.3,1.5,0.4c0.6,0.5,1.2,1.1,1.9,1.4c3.1,1.8,6.3,3.5,9.5,5.3c-0.3,1.2-0.6,2.3-0.9,3.5c-0.6-0.3-1.1-0.6-1.7-0.9
		c-4.1-2.3-8.2-4.5-12.3-6.8c-1.7-1-3.4-2.1-5.1-3.1c-1.4-0.8-3-1.5-4.4-2.3c-2.5-1.3-2.5-1.3-1-3.6c2.6-4,5.7-7.4,9.1-10.7
		c1.1-1,2.3-1.9,3.6-2.8C149.5,130.3,150.3,130.2,150.9,130z"/>
	<path class="st9" d="M172.2,128.2c-4.5-2.5-8.1-5.5-9.5-10.6c-1.9-7.1,3.9-10.7,8.8-10.1c2.3,0.3,4,1.5,4.9,3.7
		c0.6,1.4,0.8,2.9,0.7,4.4C177,120.4,175.2,124.5,172.2,128.2z"/>
	<path class="st9" d="M174.4,126.8c0,0.7,0,1.3-0.1,2c-0.4,0-0.7,0-1.3,0C173.6,128,174,127.4,174.4,126.8z"/>
	<path class="st9" d="M206.7,114.2c1.9,0,3.4,1.6,3.3,3.5c-0.1,1.8-1.5,3.2-3.4,3.2s-3.3-1.5-3.3-3.5
		C203.4,115.6,204.8,114.2,206.7,114.2z M208.3,117.6c0-1-0.8-2-1.7-2c-1,0-1.9,0.9-1.9,1.8c0,1.1,0.5,1.7,1.6,1.7
		C207.7,119.3,208.3,118.8,208.3,117.6z"/>
	<path class="st15" d="M260.1,79.9c2.1-1,3.3-0.7,4.8,1.1C263.3,80.6,261.8,80.3,260.1,79.9z"/>
	<path class="st19" d="M261.7,83.8c-0.8-1-0.9-1.5-0.3-1.8c0.2-0.1,0.7,0,1,0.1C262.9,82.6,262.7,83,261.7,83.8z"/>
	<path class="st19" d="M250.4,80c0.3,0.6,0.6,1,0.6,1.3s-0.3,0.8-0.5,0.8c-0.6,0.1-0.8-0.4-0.8-1C249.7,80.8,250,80.6,250.4,80z"/>
	<path class="st12" d="M276.6,147.8c0.4-0.1,0.7-0.2,1.1-0.3C277.3,147.6,276.9,147.7,276.6,147.8z"/>
	<path class="st15" d="M249.4,123.4c0,1.3-1,2.3-2.2,2.3c-1.3,0-2.3-1-2.3-2.2s1-2.3,2.2-2.3C248.4,121.2,249.4,122.2,249.4,123.4z
		 M247.2,121.8c-0.9,0-1.5,0.7-1.5,1.6c0,0.9,0.7,1.7,1.6,1.6c0.8,0,1.5-0.8,1.5-1.6C248.8,122.5,248.1,121.8,247.2,121.8z"/>
	<path class="st17" d="M208.3,117.6c0,1.2-0.6,1.6-2,1.6c-1.2,0-1.7-0.6-1.6-1.7c0-1,0.9-1.8,1.9-1.8
		C207.5,115.6,208.4,116.6,208.3,117.6z"/>
</g>
<g>
	<path class="st25" d="M119.5,347.6c-0.4,0.4-0.6,0.9-0.6,1.5v6.9h-9.4v-6.9c0-0.6-0.2-1.1-0.6-1.5c-0.8-0.8-2.2-0.8-3,0
		c-0.4,0.4-0.6,0.9-0.6,1.5v17.8c0,0.6,0.2,1.1,0.6,1.5c0.8,0.8,2.1,0.8,2.9,0c0.4-0.4,0.6-0.9,0.6-1.5V360h9.4v6.9
		c0,0.6,0.2,1.1,0.6,1.5s0.9,0.6,1.5,0.6s1.1-0.2,1.5-0.6s0.6-0.9,0.6-1.5v-17.8c0-0.6-0.2-1.1-0.6-1.5
		C121.6,346.8,120.2,346.8,119.5,347.6z"/>
	<path class="st25" d="M146.3,351.1c0.5,0,1-0.2,1.4-0.6c0.4-0.4,0.6-0.9,0.6-1.4s-0.2-1-0.6-1.4c-0.4-0.4-0.9-0.6-1.4-0.6h-11.6
		c-0.6,0-1.1,0.2-1.5,0.6c-0.4,0.4-0.6,0.9-0.6,1.5v17.5c0,0.6,0.2,1.1,0.6,1.5c0.4,0.4,0.9,0.6,1.5,0.6h11.6c0.5,0,1-0.2,1.4-0.6
		c0.4-0.4,0.6-0.9,0.6-1.4s-0.2-1-0.6-1.4c-0.4-0.4-0.9-0.6-1.4-0.6h-9.5v-4.9h8.5c0.5,0,1-0.2,1.4-0.6c0.4-0.4,0.6-0.9,0.6-1.4
		s-0.2-1-0.6-1.4c-0.4-0.4-0.9-0.6-1.4-0.6h-8.5V351L146.3,351.1L146.3,351.1z"/>
	<path class="st25" d="M168,348.6L168,348.6c-0.2-0.5-0.5-0.9-0.9-1.2c-0.4-0.3-0.9-0.5-1.5-0.5h-0.3c-0.6,0-1.1,0.2-1.5,0.5
		c-0.4,0.3-0.7,0.7-0.9,1.2l-7.4,17.4c-0.1,0.3-0.2,0.6-0.2,0.9c0,0.6,0.2,1.1,0.6,1.5c0.7,0.7,1.8,0.8,2.6,0.3
		c0.3-0.2,0.6-0.5,0.8-0.9l1.7-4h8.8l1.7,4.1c0.2,0.4,0.4,0.7,0.8,0.9c0.3,0.2,0.7,0.3,1.2,0.3c0.6,0,1.1-0.2,1.5-0.6
		s0.6-0.9,0.6-1.5c0-0.3-0.1-0.5-0.2-0.9L168,348.6z M168.3,359.7h-5.5l2.8-6.6L168.3,359.7z"/>
	<path class="st25" d="M196.2,364.6h-8.7V349c0-0.6-0.2-1.1-0.6-1.5c-0.8-0.8-2.2-0.8-3,0c-0.4,0.4-0.6,0.9-0.6,1.5v17.2
		c0,0.7,0.3,1.3,0.8,1.8s1.1,0.8,1.8,0.8h10.3c0.6,0,1.1-0.2,1.5-0.6s0.6-0.9,0.6-1.5s-0.2-1.1-0.6-1.5
		C197.3,364.8,196.8,364.6,196.2,364.6z"/>
	<path class="st25" d="M217.1,347.1h-14.4c-0.6,0-1,0.2-1.4,0.6s-0.6,0.9-0.6,1.4s0.2,1,0.6,1.4c0.4,0.4,0.9,0.6,1.4,0.6h5.1v15.8
		c0,0.6,0.2,1.1,0.6,1.5s0.9,0.6,1.5,0.6s1.1-0.2,1.5-0.6s0.6-0.9,0.6-1.5v-15.8h5.1c0.5,0,1-0.2,1.4-0.6s0.6-0.9,0.6-1.4
		s-0.2-1-0.6-1.4C218.2,347.3,217.7,347.1,217.1,347.1z"/>
	<path class="st25" d="M240.6,347.6c-0.4,0.4-0.6,0.9-0.6,1.5v6.9h-9.4v-6.9c0-0.6-0.2-1.1-0.6-1.5c-0.8-0.8-2.2-0.8-3,0
		c-0.4,0.4-0.6,0.9-0.6,1.5v17.8c0,0.6,0.2,1.1,0.6,1.5c0.8,0.8,2.1,0.8,2.9,0c0.4-0.4,0.6-0.9,0.6-1.5V360h9.4v6.9
		c0,0.6,0.2,1.1,0.6,1.5s0.9,0.6,1.5,0.6s1.1-0.2,1.5-0.6s0.6-0.9,0.6-1.5v-17.8c0-0.6-0.2-1.1-0.6-1.5
		C242.7,346.8,241.3,346.8,240.6,347.6z"/>
	<path class="st25" d="M259.9,351.8c1-0.6,2.3-0.9,3.8-0.9c1,0,1.9,0.1,2.6,0.3c0.8,0.2,1.5,0.5,2.4,1c0.7,0.4,1.7,0.2,2.2-0.4
		c0.3-0.4,0.5-0.8,0.5-1.3c0-0.8-0.4-1.4-1-1.8c-1.1-0.6-2.2-1.1-3.2-1.4c-1.1-0.3-2.4-0.5-3.7-0.5c-2,0-3.9,0.5-5.6,1.4
		s-3,2.2-3.9,3.9c-0.9,1.7-1.4,3.7-1.4,5.9c0,2.2,0.5,4.2,1.4,5.9c0.9,1.7,2.3,3,3.9,3.9s3.5,1.4,5.6,1.4c1.4,0,2.6-0.2,3.7-0.5
		c1.1-0.3,2.2-0.8,3.2-1.4c0.7-0.4,1-1,1-1.8c0-0.5-0.2-1-0.5-1.3c-0.6-0.6-1.5-0.7-2.3-0.3c-0.8,0.4-1.6,0.7-2.3,1
		c-0.7,0.2-1.6,0.3-2.6,0.3c-1.5,0-2.8-0.3-3.8-0.9s-1.8-1.4-2.3-2.5s-0.8-2.3-0.8-3.7s0.3-2.6,0.8-3.7
		C258.1,353.2,258.9,352.4,259.9,351.8z"/>
	<path class="st25" d="M291,348.6L291,348.6c-0.2-0.5-0.5-0.9-0.9-1.2c-0.4-0.3-0.9-0.5-1.5-0.5h-0.3c-0.6,0-1.1,0.2-1.5,0.5
		s-0.7,0.7-0.9,1.2l-7.4,17.4c-0.1,0.3-0.2,0.6-0.2,0.9c0,0.6,0.2,1.1,0.6,1.5c0.7,0.7,1.8,0.8,2.6,0.3c0.3-0.2,0.6-0.5,0.8-0.9
		l1.7-4h8.8l1.7,4.1c0.2,0.4,0.4,0.7,0.8,0.9c0.3,0.2,0.7,0.3,1.2,0.3c0.6,0,1.1-0.2,1.5-0.6s0.6-0.9,0.6-1.5c0-0.3-0.1-0.5-0.2-0.9
		L291,348.6z M291.2,359.7h-5.5l2.8-6.6L291.2,359.7z"/>
	<path class="st25" d="M322.7,357.3c0.7-1.1,1.1-2.3,1.1-3.6c0-2-0.8-3.6-2.2-4.8c-1.4-1.2-3.6-1.8-6.4-1.8h-6.7
		c-0.6,0-1.1,0.2-1.5,0.6s-0.6,0.9-0.6,1.5v17.7c0,0.6,0.2,1.1,0.6,1.5c0.8,0.8,2.1,0.8,2.9,0c0.4-0.4,0.6-0.9,0.6-1.5V361h5.2
		c1.1,0,1.9,0.3,2.4,0.7c0.6,0.5,0.9,1.1,1,1.8c0.2,0.8,0.2,1.6,0.2,2.5v0.9c0,0.6,0.2,1.1,0.6,1.5s0.9,0.6,1.5,0.6s1.1-0.2,1.5-0.6
		s0.6-0.9,0.6-1.5v-1.3c0-1.4-0.3-2.8-0.8-4.3c-0.4-1-1-1.8-1.8-2.3C321.7,358.5,322.2,358,322.7,357.3z M319.6,353.9
		c0,0.9-0.4,1.6-1.1,2.1l0,0c-0.8,0.6-2,0.9-3.5,0.9h-4.5v-5.8h4.3c2.3,0,3.4,0.4,3.8,0.8C319.3,352.4,319.6,353,319.6,353.9z"/>
	<path class="st25" d="M346.3,351.1c0.5,0,1-0.2,1.4-0.6s0.6-0.9,0.6-1.4s-0.2-1-0.6-1.4s-0.9-0.6-1.4-0.6h-11.6
		c-0.6,0-1.1,0.2-1.5,0.6s-0.6,0.9-0.6,1.5v17.5c0,0.6,0.2,1.1,0.6,1.5s0.9,0.6,1.5,0.6h11.6c0.5,0,1-0.2,1.4-0.6s0.6-0.9,0.6-1.4
		s-0.2-1-0.6-1.4s-0.9-0.6-1.4-0.6h-9.5v-4.9h8.5c0.5,0,1-0.2,1.4-0.6s0.6-0.9,0.6-1.4s-0.2-1-0.6-1.4s-0.9-0.6-1.4-0.6h-8.5V351
		L346.3,351.1L346.3,351.1z"/>
</g>
<g>
	<path class="st25" d="M173.4,387.4c-0.4,0.4-0.6,0.9-0.6,1.5v6.9h-9.4v-6.9c0-0.6-0.2-1.1-0.6-1.5c-0.8-0.8-2.2-0.8-3,0
		c-0.4,0.4-0.6,0.9-0.6,1.5v17.8c0,0.6,0.2,1.1,0.6,1.5c0.8,0.8,2.1,0.8,2.9,0c0.4-0.4,0.6-0.9,0.6-1.5v-6.9h9.4v6.9
		c0,0.6,0.2,1.1,0.6,1.5s0.9,0.6,1.5,0.6s1.1-0.2,1.5-0.6s0.6-0.9,0.6-1.5v-17.8c0-0.6-0.2-1.1-0.6-1.5
		C175.5,386.6,174.2,386.6,173.4,387.4z"/>
	<path class="st25" d="M187.1,387.4c-0.4,0.4-0.6,0.9-0.6,1.5v17.8c0,0.6,0.2,1.1,0.6,1.5s0.9,0.6,1.5,0.6s1.1-0.2,1.5-0.6
		s0.6-0.9,0.6-1.5v-17.8c0-0.6-0.2-1.1-0.6-1.5C189.3,386.6,187.9,386.6,187.1,387.4z"/>
	<path class="st25" d="M216.6,397.1L216.6,397.1c0.7-1.1,1.1-2.3,1.1-3.6c0-2-0.8-3.6-2.2-4.8c-1.4-1.2-3.6-1.8-6.4-1.8h-6.7
		c-0.6,0-1.1,0.2-1.5,0.6s-0.6,0.9-0.6,1.5v17.7c0,0.6,0.2,1.1,0.6,1.5c0.8,0.8,2.1,0.8,2.9,0c0.4-0.4,0.6-0.9,0.6-1.5v-5.9h5.2
		c1.1,0,1.9,0.3,2.4,0.7c0.6,0.5,0.9,1.1,1,1.8c0.2,0.8,0.2,1.6,0.2,2.5v0.9c0,0.6,0.2,1.1,0.6,1.5s0.9,0.6,1.5,0.6s1.1-0.2,1.5-0.6
		s0.6-0.9,0.6-1.5v-1.3c0-1.4-0.3-2.8-0.8-4.3c-0.4-1-1-1.8-1.8-2.3C215.6,398.3,216.2,397.8,216.6,397.1z M213.6,393.7
		c0,0.9-0.4,1.6-1.1,2.1c-0.8,0.6-2,0.9-3.5,0.9h-4.5v-5.8h4.3c2.3,0,3.4,0.4,3.8,0.8C213.3,392.2,213.6,392.8,213.6,393.7z"/>
	<path class="st25" d="M240.2,390.9c0.5,0,1-0.2,1.4-0.6s0.6-0.9,0.6-1.4s-0.2-1-0.6-1.4s-0.9-0.6-1.4-0.6h-11.6
		c-0.6,0-1.1,0.2-1.5,0.6s-0.6,0.9-0.6,1.5v17.5c0,0.6,0.2,1.1,0.6,1.5s0.9,0.6,1.5,0.6h11.6c0.5,0,1-0.2,1.4-0.6s0.6-0.9,0.6-1.4
		s-0.2-1-0.6-1.4s-0.9-0.6-1.4-0.6h-9.5v-4.9h8.5c0.5,0,1-0.2,1.4-0.6s0.6-0.9,0.6-1.4s-0.2-1-0.6-1.4s-0.9-0.6-1.4-0.6h-8.5v-4.9
		L240.2,390.9L240.2,390.9z"/>
	<path class="st25" d="M293.1,398.9c-0.7-0.9-1.7-1.5-2.7-1.9s-2.2-0.8-3.8-1.1c-1.1-0.3-2-0.5-2.7-0.7c-0.6-0.2-1.1-0.5-1.4-0.8
		s-0.4-0.7-0.4-1.1c0-0.8,0.3-1.3,1.1-1.8c0.8-0.5,1.9-0.8,3.3-0.8c1.5,0,3,0.2,4.4,0.7c0.3,0.1,0.5,0.2,0.7,0.2
		c0.6,0,1.1-0.2,1.4-0.6s0.5-0.8,0.5-1.3c0-0.9-0.5-1.6-1.3-1.9c-1.8-0.7-3.8-1-6-1c-1.7,0-3.2,0.3-4.4,0.9
		c-1.3,0.6-2.2,1.4-2.9,2.4c-0.7,1-1,2.2-1,3.4c0,1.4,0.4,2.6,1.2,3.5c0.8,0.8,1.7,1.5,2.8,1.9c1,0.4,2.3,0.8,3.9,1.2
		c1.2,0.3,2,0.6,2.7,0.8c0.5,0.2,1,0.4,1.3,0.8c0.3,0.2,0.4,0.5,0.4,0.9c0,0.7,0,2.6-4.3,2.6c-1.9,0-3.7-0.4-5.4-1.1
		c-0.8-0.3-1.7-0.2-2.3,0.4c-0.3,0.4-0.5,0.9-0.5,1.4c0,0.4,0.1,0.8,0.4,1.1c0.2,0.3,0.5,0.6,0.9,0.7c2.2,1,4.6,1.5,7.2,1.5
		c1.6,0,3-0.3,4.2-0.8s2.2-1.3,2.9-2.3c0.7-1,1.1-2.1,1.1-3.3C294.3,401,293.9,399.8,293.1,398.9z"/>
	<path class="st13" d="M265.7,387.5c-3.3,0-5.9,1.8-5.9,6c0-4.2-2.7-6-5.9-6c-3.3,0-5.9,3.4-5.9,7.6c0,0.3,0,0.6,0,0.8
		c0.7,9.6,11.8,12.7,11.8,12.7s11.1-3,11.8-12.7c0-0.3,0-0.5,0-0.8C271.7,390.9,269,387.5,265.7,387.5z"/>
</g>
</svg>
